<svg width="160" height="160" viewBox="0 0 160 160" fill="none" xmlns="http://www.w3.org/2000/svg">
<g clip-path="url(#clip0_67_473)">
<path d="M46.6667 0H26.6667C19.5942 0 12.8115 2.80952 7.81049 7.81049C2.80952 12.8115 0 19.5942 0 26.6667L0 46.6667C0 53.7391 2.80952 60.5219 7.81049 65.5229C12.8115 70.5238 19.5942 73.3333 26.6667 73.3333H46.6667C53.7391 73.3333 60.5219 70.5238 65.5229 65.5229C70.5238 60.5219 73.3333 53.7391 73.3333 46.6667V26.6667C73.3333 19.5942 70.5238 12.8115 65.5229 7.81049C60.5219 2.80952 53.7391 0 46.6667 0ZM60 46.6667C60 50.2029 58.5952 53.5943 56.0948 56.0948C53.5943 58.5952 50.2029 60 46.6667 60H26.6667C23.1304 60 19.7391 58.5952 17.2386 56.0948C14.7381 53.5943 13.3333 50.2029 13.3333 46.6667V26.6667C13.3333 23.1304 14.7381 19.7391 17.2386 17.2386C19.7391 14.7381 23.1304 13.3333 26.6667 13.3333H46.6667C50.2029 13.3333 53.5943 14.7381 56.0948 17.2386C58.5952 19.7391 60 23.1304 60 26.6667V46.6667Z" fill="white"/>
<path d="M133.333 0H113.333C106.261 0 99.478 2.80952 94.477 7.81049C89.476 12.8115 86.6665 19.5942 86.6665 26.6667V46.6667C86.6665 53.7391 89.476 60.5219 94.477 65.5229C99.478 70.5238 106.261 73.3333 113.333 73.3333H133.333C140.406 73.3333 147.188 70.5238 152.189 65.5229C157.19 60.5219 160 53.7391 160 46.6667V26.6667C160 19.5942 157.19 12.8115 152.189 7.81049C147.188 2.80952 140.406 0 133.333 0ZM146.667 46.6667C146.667 50.2029 145.262 53.5943 142.761 56.0948C140.261 58.5952 136.869 60 133.333 60H113.333C109.797 60 106.406 58.5952 103.905 56.0948C101.405 53.5943 99.9998 50.2029 99.9998 46.6667V26.6667C99.9998 23.1304 101.405 19.7391 103.905 17.2386C106.406 14.7381 109.797 13.3333 113.333 13.3333H133.333C136.869 13.3333 140.261 14.7381 142.761 17.2386C145.262 19.7391 146.667 23.1304 146.667 26.6667V46.6667Z" fill="white"/>
<path d="M46.6667 86.6666H26.6667C19.5942 86.6666 12.8115 89.4761 7.81049 94.4771C2.80952 99.4781 0 106.261 0 113.333L0 133.333C0 140.406 2.80952 147.189 7.81049 152.189C12.8115 157.19 19.5942 160 26.6667 160H46.6667C53.7391 160 60.5219 157.19 65.5229 152.189C70.5238 147.189 73.3333 140.406 73.3333 133.333V113.333C73.3333 106.261 70.5238 99.4781 65.5229 94.4771C60.5219 89.4761 53.7391 86.6666 46.6667 86.6666ZM60 133.333C60 136.87 58.5952 140.261 56.0948 142.761C53.5943 145.262 50.2029 146.667 46.6667 146.667H26.6667C23.1304 146.667 19.7391 145.262 17.2386 142.761C14.7381 140.261 13.3333 136.87 13.3333 133.333V113.333C13.3333 109.797 14.7381 106.406 17.2386 103.905C19.7391 101.405 23.1304 100 26.6667 100H46.6667C50.2029 100 53.5943 101.405 56.0948 103.905C58.5952 106.406 60 109.797 60 113.333V133.333Z" fill="white"/>
<path d="M133.333 86.6666H113.333C106.261 86.6666 99.478 89.4761 94.477 94.4771C89.476 99.4781 86.6665 106.261 86.6665 113.333V133.333C86.6665 140.406 89.476 147.189 94.477 152.189C99.478 157.19 106.261 160 113.333 160H133.333C140.406 160 147.188 157.19 152.189 152.189C157.19 147.189 160 140.406 160 133.333V113.333C160 106.261 157.19 99.4781 152.189 94.4771C147.188 89.4761 140.406 86.6666 133.333 86.6666ZM146.667 133.333C146.667 136.87 145.262 140.261 142.761 142.761C140.261 145.262 136.869 146.667 133.333 146.667H113.333C109.797 146.667 106.406 145.262 103.905 142.761C101.405 140.261 99.9998 136.87 99.9998 133.333V113.333C99.9998 109.797 101.405 106.406 103.905 103.905C106.406 101.405 109.797 100 113.333 100H133.333C136.869 100 140.261 101.405 142.761 103.905C145.262 106.406 146.667 109.797 146.667 113.333V133.333Z" fill="white"/>
</g>
<defs>
<clipPath id="clip0_67_473">
<rect width="160" height="160" fill="white"/>
</clipPath>
</defs>
</svg>
