<svg width="160" height="160" viewBox="0 0 160 160" fill="none" xmlns="http://www.w3.org/2000/svg">
<g clip-path="url(#clip0_67_467)">
<path d="M26.6666 0H46.6666C61.394 0 73.3331 11.9391 73.3331 26.6666V46.6666C73.3331 61.394 61.394 73.3331 46.6666 73.3331H26.6666C11.9391 73.3334 0 61.3944 0 46.6666V26.6666C0 11.9391 11.9391 0 26.6666 0Z" fill="white"/>
<path d="M113.334 0H133.334C148.061 0 160 11.9391 160 26.6666V46.6666C160 61.394 148.061 73.3331 133.334 73.3331H113.334C98.606 73.3331 86.667 61.394 86.667 46.6666V26.6666C86.6667 11.9391 98.6057 0 113.334 0Z" fill="white"/>
<path d="M26.6666 86.6666H46.6666C61.394 86.6666 73.3331 98.6057 73.3331 113.333V133.333C73.3331 148.061 61.394 160 46.6666 160H26.6666C11.9391 160 0 148.061 0 133.333V113.333C0 98.6057 11.9391 86.6666 26.6666 86.6666Z" fill="white"/>
<path d="M113.334 86.6666H133.334C148.061 86.6666 160 98.6057 160 113.333V133.333C160 148.061 148.061 160 133.334 160H113.334C98.606 160 86.667 148.061 86.667 133.333V113.333C86.6667 98.6057 98.6057 86.6666 113.334 86.6666Z" fill="white"/>
</g>
<defs>
<clipPath id="clip0_67_467">
<rect width="160" height="160" fill="white"/>
</clipPath>
</defs>
</svg>
