<svg width="108" height="108" viewBox="0 0 108 108" fill="none" xmlns="http://www.w3.org/2000/svg">
<g clip-path="url(#clip0_69_560)">
<path d="M71.6754 54.0001L104 21.6418C106.099 19.2565 107.211 16.1615 107.109 12.9859C107.008 9.81034 105.701 6.79255 103.455 4.54595C101.208 2.29935 98.1902 0.992542 95.0146 0.891155C91.8391 0.789768 88.7441 1.90141 86.3587 4.00013L54.0004 36.3251L21.5837 3.90013C20.4226 2.73902 19.0442 1.81799 17.5271 1.1896C16.0101 0.561219 14.3841 0.237793 12.7421 0.237793C11.1 0.237793 9.47405 0.561219 7.95699 1.1896C6.43993 1.81799 5.0615 2.73902 3.9004 3.90013C2.73929 5.06123 1.81826 6.43967 1.18987 7.95672C0.561486 9.47378 0.23806 11.0997 0.23806 12.7418C0.23806 14.3838 0.561486 16.0098 1.18987 17.5269C1.81826 19.0439 2.73929 20.4224 3.9004 21.5835L36.3254 54.0001L4.0004 86.3501C2.73267 87.4834 1.70948 88.8633 0.993426 90.4056C0.277373 91.9479 -0.116484 93.6201 -0.164053 95.3198C-0.211622 97.0195 0.0880983 98.7111 0.716773 100.291C1.34545 101.871 2.28986 103.306 3.49222 104.508C4.69458 105.711 6.12962 106.655 7.70953 107.284C9.28944 107.912 10.981 108.212 12.6807 108.165C14.3805 108.117 16.0526 107.723 17.5949 107.007C19.1372 106.291 20.5172 105.268 21.6504 104L54.0004 71.6751L86.3171 104C88.662 106.345 91.8425 107.662 95.1587 107.662C98.475 107.662 101.655 106.345 104 104C106.345 101.655 107.663 98.4747 107.663 95.1585C107.663 91.8422 106.345 88.6618 104 86.3168L71.6754 54.0001Z" fill="url(#paint0_linear_69_560)"/>
</g>
<defs>
<linearGradient id="paint0_linear_69_560" x1="99.0002" y1="0.666868" x2="5.66683" y2="98.1669" gradientUnits="userSpaceOnUse">
<stop stop-color="#8B3FFD"/>
<stop offset="1" stop-color="#532697"/>
</linearGradient>
<clipPath id="clip0_69_560">
<rect width="108" height="108" fill="white"/>
</clipPath>
</defs>
</svg>
