<svg width="160" height="160" viewBox="0 0 160 160" fill="none" xmlns="http://www.w3.org/2000/svg">
<g clip-path="url(#clip0_67_478)">
<path d="M80 99.989C68.9544 99.989 60 108.943 60 119.989V159.989H100V119.989C100 108.943 91.0456 99.989 80 99.989Z" fill="white"/>
<path d="M113.333 119.989V159.989H140C151.046 159.989 160 151.035 160 139.989V79.1824C160.002 75.719 158.656 72.3909 156.247 69.9024L99.5934 8.65556C89.5972 -2.16006 72.7259 -2.82413 61.9103 7.17212C61.3966 7.64712 60.9016 8.14181 60.4269 8.65556L3.87344 69.8824C1.39156 72.3812 -0.000937027 75.7606 4.73072e-07 79.2824V139.989C4.73072e-07 151.035 8.95437 159.989 20 159.989H46.6666V119.989C46.7912 101.81 61.4684 86.9653 79.1894 86.5378C97.5031 86.0959 113.194 101.194 113.333 119.989Z" fill="white"/>
<path d="M80 99.989C68.9544 99.989 60 108.943 60 119.989V159.989H100V119.989C100 108.943 91.0456 99.989 80 99.989Z" fill="white"/>
</g>
<defs>
<clipPath id="clip0_67_478">
<rect width="160" height="160" fill="white"/>
</clipPath>
</defs>
</svg>
