<svg width="160" height="160" viewBox="0 0 160 160" fill="none" xmlns="http://www.w3.org/2000/svg">
<g clip-path="url(#clip0_67_484)">
<path d="M154.14 60.3654L103.573 9.79214C97.3149 3.55207 88.8377 0.0479736 80 0.0479736C71.1623 0.0479736 62.6851 3.55207 56.4267 9.79214L5.86007 60.3654C3.99625 62.2173 2.51854 64.4207 1.51263 66.848C0.506714 69.2752 -0.00740266 71.878 8.05298e-05 74.5054V139.952C8.05298e-05 145.256 2.10722 150.343 5.85794 154.094C9.60866 157.845 14.6957 159.952 20.0001 159.952H140C145.304 159.952 150.391 157.845 154.142 154.094C157.893 150.343 160 145.256 160 139.952V74.5054C160.007 71.878 159.493 69.2752 158.487 66.848C157.481 64.4207 156.004 62.2173 154.14 60.3654ZM100 146.619H60V120.392C60 115.088 62.1072 110.001 65.8579 106.25C69.6086 102.499 74.6957 100.392 80 100.392C85.3043 100.392 90.3914 102.499 94.1421 106.25C97.8928 110.001 100 115.088 100 120.392V146.619ZM146.667 139.952C146.667 141.72 145.964 143.416 144.714 144.666C143.464 145.916 141.768 146.619 140 146.619H113.333V120.392C113.333 111.551 109.821 103.073 103.57 96.8218C97.319 90.5706 88.8405 87.0587 80 87.0587C71.1595 87.0587 62.681 90.5706 56.4298 96.8218C50.1786 103.073 46.6667 111.551 46.6667 120.392V146.619H20.0001C18.232 146.619 16.5363 145.916 15.286 144.666C14.0358 143.416 13.3334 141.72 13.3334 139.952V74.5054C13.3396 72.7386 14.0413 71.0453 15.2867 69.7921L65.8534 19.2388C69.6113 15.4983 74.6978 13.3984 80 13.3984C85.3022 13.3984 90.3887 15.4983 94.1467 19.2388L144.713 69.8121C145.954 71.0604 146.655 72.7455 146.667 74.5054V139.952Z" fill="white"/>
</g>
<defs>
<clipPath id="clip0_67_484">
<rect width="160" height="160" fill="white"/>
</clipPath>
</defs>
</svg>
