<svg width="80" height="80" viewBox="0 0 80 80" fill="none" xmlns="http://www.w3.org/2000/svg">
<path d="M36.5433 59.4067C24.7566 70.6867 20.2999 66.23 17.0466 62.97C13.4866 59.4067 9.05659 54.9734 21.6533 42.36C27.1333 36.8734 31.7166 34.09 35.2799 34.09C36.6899 34.09 38.9466 34.47 42.2199 37.7467C44.1699 39.7 47.3366 39.7034 49.2933 37.75C51.2466 35.8 51.2499 32.6334 49.2966 30.6767C39.1999 20.5667 27.9866 21.8634 14.5766 35.29C1.35326 48.5367 -0.153406 59.9034 9.96993 70.04C14.3866 74.4634 19.0233 76.6734 23.9433 76.6734C29.9899 76.6734 36.4599 73.33 43.4566 66.63C45.4533 64.72 45.5199 61.5567 43.6099 59.56C41.6966 57.5634 38.5333 57.4934 36.5399 59.4067H36.5433Z" fill="#00C6DB"/>
<path d="M70.0265 9.92331C60.1865 0.0733127 49.2365 1.18665 36.5432 13.3266C34.5465 15.2366 34.4765 18.4 36.3865 20.3966C38.2965 22.3933 41.4598 22.46 43.4565 20.5533C55.2465 9.27665 59.6998 13.7333 62.9532 16.9866C66.5098 20.5533 70.9398 24.9866 58.3465 37.6C52.8432 43.1133 48.2598 45.9066 44.7265 45.9066C43.3298 45.9066 41.0865 45.5233 37.7832 42.2133C35.8298 40.2566 32.6632 40.2566 30.7098 42.21C28.7565 44.16 28.7532 47.3266 30.7065 49.2833C35.1598 53.7433 39.7465 55.91 44.7298 55.91C51.1898 55.91 57.7698 52.3366 65.4265 44.67C78.6498 31.4266 80.1565 20.0633 70.0332 9.92331H70.0265Z" fill="#00C6DB"/>
</svg>
