<svg width="96" height="96" viewBox="0 0 96 96" fill="none" xmlns="http://www.w3.org/2000/svg">
<path d="M72 48C58.744 48 48 58.744 48 72C48 85.256 58.744 96 72 96C85.256 96 96 85.256 96 72C96 58.744 85.256 48 72 48ZM86.732 70.848L75.92 81.304C74.112 83.088 71.712 83.988 69.308 83.988C66.904 83.988 64.496 83.088 62.656 81.292L57.24 75.964C55.66 74.416 55.64 71.884 57.184 70.308C58.728 68.728 61.26 68.704 62.84 70.252L68.256 75.576C68.832 76.144 69.776 76.132 70.344 75.568L81.196 65.072C82.784 63.548 85.32 63.592 86.852 65.188C88.38 66.78 88.328 69.312 86.736 70.844L86.732 70.848ZM40 72C37.792 72 36 70.212 36 68V60C36 57.788 37.792 56 40 56C41.42 56 42.608 56.784 43.32 57.896C48.544 47.312 59.42 40 72 40C73.408 40 74.784 40.124 76.148 40.3C74.064 37.444 71.276 35.132 68 33.696V28C68 12.56 55.44 0 40 0C24.56 0 12 12.56 12 28V33.696C4.948 36.792 0 43.82 0 52V76C0 87.028 8.972 96 20 96H50.904C44.236 90.132 40 81.56 40 72ZM20 28C20 16.972 28.972 8 40 8C51.028 8 60 16.972 60 28V32H20V28Z" fill="#05D705"/>
</svg>
