<svg width="400" height="400" viewBox="0 0 400 400" fill="none" xmlns="http://www.w3.org/2000/svg">
<g clip-path="url(#clip0_67_494)">
<path d="M200 400C310.457 400 400 310.457 400 200C400 89.543 310.457 0 200 0C89.543 0 0 89.543 0 200C0 310.457 89.543 400 200 400Z" fill="url(#paint0_linear_67_494)"/>
<path fill-rule="evenodd" clip-rule="evenodd" d="M90.5317 197.889C148.836 172.487 187.714 155.74 207.167 147.649C262.709 124.548 274.25 120.534 281.772 120.402C283.427 120.373 287.126 120.783 289.522 122.727C293.077 125.612 293.097 131.873 292.703 136.016C289.693 167.641 276.669 244.386 270.043 279.806C267.239 294.794 261.719 299.82 256.375 300.311C244.761 301.38 235.942 292.635 224.693 285.262C207.09 273.723 197.146 266.54 180.059 255.28C160.313 242.268 173.114 235.116 184.367 223.428C187.312 220.37 238.485 173.823 239.475 169.601C239.6 169.073 239.714 167.104 238.545 166.065C237.375 165.026 235.65 165.38 234.404 165.663C232.639 166.064 204.518 184.651 150.043 221.423C142.061 226.904 134.832 229.574 128.354 229.434C121.213 229.28 107.477 225.397 97.2653 222.077C84.7403 218.006 74.7856 215.853 75.6528 208.939C76.1043 205.337 81.0637 201.654 90.5317 197.889Z" fill="white"/>
</g>
<defs>
<linearGradient id="paint0_linear_67_494" x1="200" y1="0" x2="200" y2="396.875" gradientUnits="userSpaceOnUse">
<stop stop-color="#2AABEE"/>
<stop offset="1" stop-color="#229ED9"/>
</linearGradient>
<clipPath id="clip0_67_494">
<rect width="400" height="400" fill="white"/>
</clipPath>
</defs>
</svg>
