<svg width="100" height="100" viewBox="0 0 100 100" fill="none" xmlns="http://www.w3.org/2000/svg">
<g clip-path="url(#clip0_74_685)">
<path d="M99.0525 94.5596L73.2342 69.1538C79.9952 61.8081 84.1493 52.0934 84.1493 41.4034C84.1461 18.5355 65.3104 0 42.0737 0C18.837 0 0.00137329 18.5355 0.00137329 41.4034C0.00137329 64.2713 18.837 82.8068 42.0737 82.8068C52.1136 82.8068 61.3219 79.3342 68.555 73.5609L94.4735 99.0669C95.7364 100.311 97.7867 100.311 99.0496 99.0669C100.315 97.8229 100.315 95.8037 99.0525 94.5596ZM42.0737 76.4367C22.4129 76.4367 6.4748 60.7518 6.4748 41.4034C6.4748 22.055 22.4129 6.37016 42.0737 6.37016C61.7347 6.37016 77.6726 22.055 77.6726 41.4034C77.6726 60.7518 61.7347 76.4367 42.0737 76.4367Z" fill="#00C6DB"/>
</g>
<defs>
<clipPath id="clip0_74_685">
<rect width="100" height="100" fill="white"/>
</clipPath>
</defs>
</svg>
