<svg width="44" height="36" viewBox="0 0 44 36" fill="none" xmlns="http://www.w3.org/2000/svg">
<path fill-rule="evenodd" clip-rule="evenodd" d="M2.98631 15.4978C14.6471 10.4173 22.4229 7.06793 26.3133 5.44981C37.4218 0.829497 39.7301 0.0268406 41.2344 0.000278091C41.5654 -0.00550316 42.3052 0.0765289 42.7844 0.465435C43.4954 1.04231 43.4994 2.2945 43.4205 3.12325C42.8185 9.44825 40.2138 24.7972 38.8887 31.8812C38.3279 34.8787 37.2238 35.8839 36.1551 35.9822C33.8323 36.1959 32.0683 34.447 29.8185 32.9723C26.298 30.6645 24.3091 29.2279 20.8918 26.9761C16.9426 24.3736 19.5027 22.9432 21.7533 20.6056C22.3424 19.9939 32.5769 10.6847 32.7751 9.84012C32.7999 9.7345 32.8229 9.34075 32.589 9.13293C32.3551 8.92512 32.0099 8.99606 31.7608 9.05262C31.4077 9.13278 25.7837 12.8501 14.8887 20.2045C13.2922 21.3007 11.8463 21.8348 10.5508 21.8068C9.12256 21.7761 6.37538 20.9993 4.33303 20.3354C1.82803 19.5212 -0.162905 19.0906 0.0105322 17.7078C0.100845 16.9873 1.09272 16.2507 2.98631 15.4978Z" fill="white"/>
</svg>
