<svg width="80" height="80" viewBox="0 0 80 80" fill="none" xmlns="http://www.w3.org/2000/svg">
<g clip-path="url(#clip0_140_2)">
<path d="M40 0C17.9091 0 0 17.9091 0 40C0 62.0909 17.9091 80 40 80C62.0909 80 80 62.0909 80 40C80 17.9091 62.0909 0 40 0ZM40 73.3333C21.5909 73.3333 6.66672 58.4091 6.66672 40C6.66672 21.5909 21.5909 6.66672 40 6.66672C58.4091 6.66672 73.3333 21.5909 73.3333 40C73.3333 58.4091 58.4091 73.3333 40 73.3333Z" fill="white"/>
<path d="M49.0237 20.9763C47.722 19.6745 45.6114 19.6745 44.3096 20.9763L27.6429 37.643C26.3412 38.9447 26.3412 41.0553 27.6429 42.357L44.3096 59.0238C45.6114 60.3255 47.722 60.3255 49.0237 59.0238C50.3254 57.722 50.3254 55.6114 49.0237 54.3097L34.714 40L49.0237 25.6903C50.3254 24.3886 50.3254 22.2781 49.0237 20.9763Z" fill="white"/>
</g>
<defs>
<clipPath id="clip0_140_2">
<rect width="80" height="80" fill="white"/>
</clipPath>
</defs>
</svg>
