<svg width="40" height="80" viewBox="0 0 40 80" fill="none" xmlns="http://www.w3.org/2000/svg">
<path d="M39.4728 5.00227C39.4716 6.3279 38.9441 7.59882 38.0062 8.5356L12.4328 34.1089C11.6588 34.8828 11.0447 35.8015 10.6258 36.8127C10.2069 37.8239 9.99126 38.9077 9.99126 40.0023C9.99126 41.0968 10.2069 42.1806 10.6258 43.1918C11.0447 44.203 11.6588 45.1218 12.4328 45.8956L37.9728 71.4356C38.8836 72.3786 39.3876 73.6416 39.3762 74.9526C39.3648 76.2636 38.839 77.5177 37.9119 78.4447C36.9849 79.3717 35.7308 79.8976 34.4198 79.909C33.1088 79.9204 31.8458 79.4164 30.9028 78.5056L5.36281 52.9856C1.9287 49.5447 0 44.882 0 40.0206C0 35.1593 1.9287 30.4965 5.36281 27.0556L30.9361 1.4656C31.6354 0.765882 32.5265 0.289314 33.4967 0.0961999C34.4669 -0.0969138 35.4726 0.00210663 36.3865 0.380732C37.3004 0.759357 38.0815 1.40057 38.6309 2.22323C39.1803 3.04589 39.4733 4.01303 39.4728 5.00227Z" fill="white"/>
</svg>
