<svg width="160" height="160" viewBox="0 0 160 160" fill="none" xmlns="http://www.w3.org/2000/svg">
<g clip-path="url(#clip0_67_449)">
<path d="M153.333 154.309C151.565 154.309 149.869 153.607 148.619 152.357C147.369 151.106 146.666 149.411 146.666 147.643C146.656 137.037 142.438 126.869 134.939 119.37C127.44 111.871 117.272 107.653 106.666 107.643H67.7998V118.216C67.7992 120.853 67.0169 123.43 65.5518 125.622C64.0867 127.814 62.0045 129.523 59.5685 130.532C57.1325 131.54 54.4521 131.805 51.866 131.29C49.28 130.776 46.9045 129.507 45.0398 127.643L5.84645 88.4492C2.09703 84.6986 -0.00927734 79.6125 -0.00927734 74.3092C-0.00927734 69.0059 2.09703 63.9197 5.84645 60.1692L45.0398 20.9758C46.9045 19.1117 49.28 17.8423 51.866 17.3281C54.4521 16.8138 57.1325 17.0779 59.5685 18.0868C62.0045 19.0957 64.0867 20.8043 65.5518 22.9964C67.0169 25.1885 67.7992 27.7658 67.7998 30.4025V40.9758H99.9998C115.907 40.9935 131.158 47.3206 142.407 58.5689C153.655 69.8173 159.982 85.0683 160 100.976V147.643C160 149.411 159.297 151.106 158.047 152.357C156.797 153.607 155.101 154.309 153.333 154.309ZM54.4665 30.4025L15.2731 69.5958C14.0233 70.846 13.3212 72.5414 13.3212 74.3092C13.3212 76.0769 14.0233 77.7723 15.2731 79.0225L54.4665 118.216V100.976C54.4665 99.2077 55.1688 97.512 56.4191 96.2618C57.6693 95.0116 59.365 94.3092 61.1331 94.3092H106.666C114.237 94.3069 121.721 95.9197 128.619 99.0397C135.517 102.16 141.669 106.715 146.666 112.403V100.976C146.652 88.6034 141.731 76.7418 132.983 67.9931C124.234 59.2445 112.372 54.3233 99.9998 54.3092H61.1331C59.365 54.3092 57.6693 53.6068 56.4191 52.3566C55.1688 51.1063 54.4665 49.4106 54.4665 47.6425V30.4025Z" fill="white"/>
</g>
<defs>
<clipPath id="clip0_67_449">
<rect width="160" height="160" fill="white"/>
</clipPath>
</defs>
</svg>
