<svg width="160" height="160" viewBox="0 0 160 160" fill="none" xmlns="http://www.w3.org/2000/svg">
<path d="M139.5 160H126.167V126.38C126.161 121.153 124.083 116.142 120.387 112.446C116.691 108.751 111.68 106.672 106.453 106.667H52.5467C47.32 106.672 42.3089 108.751 38.6131 112.446C34.9173 116.142 32.8386 121.153 32.8333 126.38V160H19.5V126.38C19.5106 117.619 22.9957 109.219 29.1908 103.024C35.386 96.8289 43.7854 93.3438 52.5467 93.3333H106.453C115.215 93.3438 123.614 96.8289 129.809 103.024C136.004 109.219 139.489 117.619 139.5 126.38V160Z" fill="white"/>
<path d="M79.5 80C71.5888 80 63.8552 77.6541 57.2772 73.2588C50.6992 68.8635 45.5723 62.6164 42.5448 55.3074C39.5173 47.9983 38.7252 39.9556 40.2686 32.1964C41.812 24.4372 45.6216 17.3098 51.2157 11.7157C56.8098 6.12165 63.9372 2.31202 71.6964 0.768607C79.4556 -0.774802 87.4983 0.0173314 94.8074 3.04484C102.116 6.07234 108.364 11.1992 112.759 17.7772C117.154 24.3552 119.5 32.0888 119.5 40C119.489 50.6054 115.272 60.7734 107.773 68.2726C100.273 75.7718 90.1054 79.9894 79.5 80ZM79.5 13.3334C74.2258 13.3334 69.0701 14.8973 64.6848 17.8275C60.2995 20.7577 56.8816 24.9224 54.8632 29.7951C52.8449 34.6678 52.3168 40.0296 53.3457 45.2024C54.3747 50.3753 56.9144 55.1268 60.6438 58.8562C64.3732 62.5856 69.1248 65.1254 74.2976 66.1543C79.4704 67.1832 84.8322 66.6551 89.7049 64.6368C94.5776 62.6185 98.7424 59.2005 101.673 54.8152C104.603 50.4299 106.167 45.2742 106.167 40C106.167 32.9276 103.357 26.1448 98.3562 21.1438C93.3552 16.1429 86.5725 13.3334 79.5 13.3334Z" fill="white"/>
</svg>
