<svg width="200" height="200" viewBox="0 0 200 200" fill="none" xmlns="http://www.w3.org/2000/svg">
<path d="M195.879 52.5517C193.574 43.9839 186.819 37.2304 178.252 34.9233C162.602 30.6401 99.9981 30.6401 99.9981 30.6401C99.9981 30.6401 37.3961 30.6401 21.7452 34.76C13.3438 37.0656 6.42392 43.9854 4.11833 52.5517C0 68.201 0 100.656 0 100.656C0 100.656 0 133.275 4.11833 148.761C6.42545 157.327 13.179 164.082 21.7467 166.389C37.5609 170.673 99.9996 170.673 99.9996 170.673C99.9996 170.673 162.602 170.673 178.252 166.553C186.82 164.247 193.574 157.492 195.881 148.926C199.999 133.275 199.999 100.821 199.999 100.821C199.999 100.821 200.164 68.201 195.879 52.5517Z" fill="#FF0000"/>
<path d="M80.0654 130.078L132.124 100.095L80.0654 70.1113V130.078Z" fill="white"/>
</svg>
