<svg width="188" height="130" viewBox="0 0 188 130" fill="none" xmlns="http://www.w3.org/2000/svg">
<path d="M116.269 4.0625C82.168 4.0625 54.7651 31.4844 54.7651 65C54.7651 98.7915 82.438 125.938 116.262 125.938C150.085 125.938 177.782 98.5154 177.782 65C177.782 31.4844 150.093 4.0625 116.269 4.0625ZM116.269 87.7136C103.69 87.7136 93.35 77.464 93.35 65C93.35 52.5362 103.69 42.2866 116.269 42.2866C128.85 42.2866 139.193 52.5362 139.193 65C138.911 77.464 128.85 87.7136 116.269 87.7136Z" fill="#8B3FFD"/>
<path d="M54.7655 21.7661V110.402H32.9738L5.01904 21.7661H54.7655Z" fill="#8B3FFD"/>
</svg>
